<svg xmlns="http://www.w3.org/2000/svg" xmlns:xlink="http://www.w3.org/1999/xlink" width="500" zoomAndPan="magnify" viewBox="0 0 375 374.999991" height="500" preserveAspectRatio="xMidYMid meet" version="1.0"><defs><g/></defs><rect x="-37.5" width="450" fill="#ffffff" y="-37.499999" height="449.999989" fill-opacity="1"/><rect x="-37.5" width="450" fill="#ffffff" y="-37.499999" height="449.999989" fill-opacity="1"/><rect x="-37.5" width="450" fill="#ffffff" y="-37.499999" height="449.999989" fill-opacity="1"/><g fill="#ff5757" fill-opacity="1"><g transform="translate(112.092262, 211.204503)"><g><path d="M 6.089844 -2.140625 C 6.582031 -2.304688 6.832031 -2.796875 6.75 -3.457031 C 6.75 -3.621094 6.664062 -3.867188 6.664062 -4.113281 C 6.417969 -5.183594 6.253906 -6.335938 6.007812 -7.488281 C 5.515625 -9.21875 5.515625 -10.945312 5.597656 -12.671875 C 5.597656 -13.25 5.761719 -13.824219 5.925781 -14.484375 C 6.007812 -14.894531 6.335938 -15.058594 6.75 -14.976562 C 8.476562 -14.566406 10.203125 -14.238281 11.851562 -13.824219 C 15.390625 -12.839844 19.011719 -12.507812 22.714844 -12.425781 C 25.347656 -12.34375 27.816406 -12.839844 30.285156 -13.824219 C 35.550781 -16.046875 39.996094 -19.421875 43.535156 -23.867188 L 45.015625 -25.921875 C 45.261719 -26.335938 45.261719 -26.828125 44.851562 -27.15625 C 44.523438 -27.488281 43.945312 -27.488281 43.617188 -27.074219 C 43.207031 -26.582031 42.710938 -26.085938 42.300781 -25.511719 C 39.335938 -21.5625 35.632812 -18.515625 31.191406 -16.375 C 27.898438 -14.8125 24.605469 -13.992188 21.230469 -14.402344 C 16.375 -14.730469 11.851562 -15.554688 7.570312 -16.789062 C 7.324219 -16.871094 6.996094 -16.953125 6.75 -17.199219 C 6.582031 -17.28125 6.582031 -17.609375 6.832031 -17.777344 C 7.160156 -17.941406 7.570312 -18.105469 8.066406 -18.269531 C 9.136719 -18.679688 10.203125 -18.929688 11.273438 -19.339844 C 14.238281 -20.574219 16.871094 -22.300781 18.84375 -25.019531 C 19.585938 -26.003906 20.164062 -27.074219 20.328125 -28.308594 C 20.820312 -31.027344 18.929688 -32.917969 16.210938 -32.34375 C 14.894531 -32.011719 13.742188 -31.4375 12.753906 -30.695312 C 11.355469 -29.625 10.121094 -28.308594 9.050781 -26.910156 C 7.734375 -25.101562 6.75 -23.207031 5.761719 -21.230469 C 5.597656 -20.738281 5.265625 -20.246094 5.019531 -19.832031 C 4.855469 -19.585938 4.195312 -19.667969 4.03125 -19.996094 C 4.03125 -20.164062 3.949219 -20.246094 3.949219 -20.410156 C 3.703125 -22.21875 3.539062 -24.03125 3.375 -25.839844 C 3.292969 -26.5 3.539062 -26.992188 4.03125 -27.488281 C 7.734375 -31.191406 10.945312 -35.304688 14.402344 -39.253906 C 18.515625 -44.027344 21.808594 -49.296875 24.441406 -54.972656 C 25.757812 -57.6875 26.582031 -60.488281 26.828125 -63.449219 C 27.15625 -67.648438 24.605469 -70.855469 20.492188 -71.515625 C 19.257812 -71.761719 18.105469 -71.679688 16.871094 -71.351562 C 14.484375 -70.773438 12.589844 -69.539062 10.78125 -67.976562 C 7.816406 -65.34375 5.925781 -62.132812 4.773438 -58.429688 C 2.550781 -51.929688 1.480469 -45.179688 1.070312 -38.351562 C 0.824219 -34.480469 1.316406 -30.613281 1.070312 -26.746094 C 1.070312 -26.417969 1.152344 -26.171875 1.234375 -25.839844 C 1.726562 -24.03125 1.726562 -22.054688 1.976562 -20.246094 C 1.976562 -19.503906 1.726562 -19.257812 0.988281 -19.257812 L -0.824219 -19.257812 C -1.152344 -19.257812 -1.5625 -19.257812 -1.894531 -19.175781 C -2.222656 -19.09375 -2.46875 -18.84375 -2.46875 -18.515625 C -2.550781 -18.269531 -2.46875 -17.941406 -2.222656 -17.777344 C -1.808594 -17.527344 -1.398438 -17.363281 -0.988281 -17.199219 C -0.164062 -16.953125 0.660156 -16.707031 1.480469 -16.542969 C 2.140625 -16.375 2.550781 -15.964844 2.632812 -15.308594 L 3.375 -11.027344 C 3.621094 -9.050781 3.867188 -6.996094 4.195312 -5.019531 C 4.363281 -4.28125 4.527344 -3.621094 4.773438 -3.046875 C 5.019531 -2.304688 5.597656 -1.894531 6.089844 -2.140625 Z M 3.457031 -29.707031 C 3.128906 -29.875 3.046875 -30.203125 3.046875 -30.449219 C 2.960938 -31.355469 2.878906 -32.261719 2.878906 -33.246094 C 2.960938 -40.488281 3.703125 -47.730469 5.597656 -54.808594 C 6.253906 -56.949219 6.914062 -59.089844 7.898438 -61.0625 C 9.382812 -63.945312 11.4375 -66.332031 14.15625 -68.140625 C 15.308594 -68.800781 16.460938 -69.292969 17.777344 -69.621094 C 19.175781 -69.867188 20.492188 -69.703125 21.726562 -69.210938 C 23.699219 -68.386719 24.6875 -66.824219 24.851562 -64.765625 C 24.933594 -62.875 24.605469 -61.144531 24.113281 -59.335938 C 23.617188 -57.855469 23.042969 -56.371094 22.300781 -54.890625 C 19.667969 -49.625 16.460938 -44.605469 12.589844 -40.078125 C 10.121094 -37.117188 7.652344 -34.152344 5.101562 -31.191406 C 4.609375 -30.613281 4.195312 -29.957031 3.457031 -29.707031 Z M 8.640625 -20.492188 C 8.476562 -20.492188 8.148438 -20.328125 8.066406 -20.574219 C 7.984375 -20.738281 7.898438 -21.066406 7.984375 -21.230469 C 9.300781 -24.03125 10.863281 -26.582031 13.25 -28.554688 C 14.238281 -29.460938 15.308594 -30.121094 16.625 -30.367188 C 17.777344 -30.695312 18.433594 -30.121094 18.433594 -28.804688 C 18.351562 -28.554688 18.351562 -28.144531 18.1875 -27.734375 C 17.859375 -27.074219 17.445312 -26.335938 16.953125 -25.757812 C 14.8125 -23.125 11.933594 -21.398438 8.640625 -20.492188 Z M 8.640625 -20.492188 "/></g></g></g><g fill="#ff5757" fill-opacity="1"><g transform="translate(154.800131, 211.204503)"><g><path d="M 5.347656 -14.15625 C 7.488281 -13.085938 9.464844 -13.25 11.4375 -14.402344 C 12.34375 -14.976562 13.167969 -15.554688 13.660156 -16.375 C 14.566406 -18.105469 15.800781 -18.1875 17.445312 -17.527344 C 17.941406 -17.28125 18.597656 -17.199219 19.175781 -17.035156 C 21.480469 -16.460938 23.785156 -16.375 26.171875 -16.625 C 33.246094 -17.363281 39.253906 -20.410156 44.027344 -25.675781 C 44.273438 -25.921875 44.523438 -26.253906 44.769531 -26.582031 C 44.933594 -26.828125 44.769531 -27.15625 44.605469 -27.40625 C 44.273438 -27.734375 43.945312 -27.816406 43.535156 -27.652344 C 43.289062 -27.570312 43.039062 -27.320312 42.792969 -27.15625 C 42.300781 -26.582031 41.722656 -26.085938 41.148438 -25.511719 C 36.375 -20.984375 30.695312 -18.679688 23.125 -18.433594 C 21.5625 -18.269531 19.175781 -19.011719 16.789062 -19.75 C 16.046875 -19.914062 15.964844 -20.246094 16.128906 -20.902344 L 16.375 -22.21875 C 16.871094 -23.867188 16.953125 -25.511719 16.789062 -27.238281 C 16.460938 -29.957031 15.140625 -32.09375 12.753906 -33.496094 C 10.699219 -34.8125 8.558594 -35.222656 6.335938 -33.164062 C 6.007812 -32.917969 5.761719 -32.589844 5.347656 -32.589844 C 3.785156 -32.753906 3.128906 -31.601562 2.386719 -30.53125 C 0.90625 -28.308594 0.164062 -25.921875 0 -23.289062 C -0.246094 -18.929688 1.480469 -16.046875 5.347656 -14.15625 Z M 13.167969 -21.066406 C 10.453125 -22.632812 8.066406 -24.523438 6.582031 -27.40625 C 5.429688 -29.542969 7.40625 -32.09375 8.96875 -32.507812 C 9.792969 -32.753906 10.617188 -32.507812 11.355469 -32.09375 C 13.496094 -31.027344 14.566406 -29.214844 14.894531 -26.910156 C 14.976562 -26.417969 14.976562 -26.003906 14.976562 -25.59375 C 14.894531 -24.195312 14.648438 -22.878906 14.15625 -21.5625 C 13.992188 -20.984375 13.578125 -20.738281 13.167969 -21.066406 Z M 7.078125 -15.554688 C 4.113281 -16.375 2.140625 -18.761719 1.976562 -21.808594 C 1.808594 -24.03125 2.222656 -26.335938 3.375 -28.308594 C 3.457031 -28.472656 3.621094 -28.640625 3.785156 -28.804688 C 4.195312 -28.640625 4.195312 -28.308594 4.28125 -28.0625 C 4.855469 -25.921875 6.089844 -24.195312 7.652344 -22.796875 C 9.050781 -21.480469 10.535156 -20.246094 12.097656 -19.257812 C 12.839844 -18.84375 12.839844 -18.515625 12.34375 -17.859375 C 11.6875 -16.953125 10.945312 -16.292969 9.957031 -15.800781 C 9.050781 -15.390625 8.066406 -15.308594 7.078125 -15.554688 Z M 7.078125 -15.554688 "/></g></g></g><g fill="#ff5757" fill-opacity="1"><g transform="translate(197.178851, 211.204503)"><g><path d="M 11.519531 -6.417969 C 15.964844 -3.621094 20.984375 -4.9375 23.699219 -9.382812 C 23.785156 -9.464844 23.867188 -9.464844 23.867188 -9.546875 C 24.359375 -11.191406 25.429688 -11.605469 26.992188 -11.355469 C 27.320312 -11.273438 27.570312 -11.355469 27.898438 -11.355469 C 29.707031 -11.191406 31.519531 -11.4375 33.328125 -11.851562 C 34.398438 -12.179688 35.550781 -12.507812 36.621094 -12.753906 C 39.171875 -13.496094 41.558594 -14.648438 43.78125 -16.128906 C 47.8125 -18.84375 51.105469 -22.382812 54.234375 -26.003906 C 54.316406 -26.171875 54.480469 -26.335938 54.5625 -26.582031 C 54.644531 -26.910156 54.5625 -27.15625 54.316406 -27.40625 C 54.152344 -27.652344 53.820312 -27.734375 53.492188 -27.652344 C 53.164062 -27.488281 52.832031 -27.238281 52.585938 -26.992188 L 50.613281 -24.769531 C 48.226562 -22.054688 45.507812 -19.585938 42.464844 -17.527344 C 40.734375 -16.375 38.925781 -15.472656 36.949219 -14.894531 C 35.46875 -14.402344 34.070312 -13.992188 32.589844 -13.660156 C 30.613281 -13.085938 28.640625 -13.003906 26.664062 -13.167969 C 25.839844 -13.25 25.59375 -13.496094 25.757812 -14.402344 L 26.253906 -17.527344 C 26.5 -19.667969 26.171875 -21.726562 25.347656 -23.785156 C 24.523438 -25.921875 23.042969 -27.488281 20.820312 -28.308594 C 18.597656 -29.132812 16.046875 -28.472656 14.648438 -26.664062 C 13.085938 -24.769531 12.425781 -22.550781 13.085938 -20.082031 C 13.742188 -17.527344 15.226562 -15.554688 17.28125 -13.992188 C 18.679688 -12.921875 20.246094 -12.179688 21.972656 -11.769531 C 22.382812 -11.605469 22.550781 -11.191406 22.300781 -10.863281 C 21.148438 -8.476562 19.339844 -6.996094 16.707031 -6.914062 C 15.140625 -6.832031 13.660156 -7.242188 12.34375 -8.066406 C 9.710938 -9.875 7.570312 -12.015625 6.253906 -14.976562 C 5.101562 -17.609375 4.195312 -20.246094 3.375 -22.960938 C 3.046875 -24.195312 3.046875 -24.277344 4.195312 -24.933594 C 6.914062 -26.746094 9.382812 -28.886719 11.769531 -31.191406 C 14.894531 -34.316406 17.609375 -37.9375 20.246094 -41.558594 C 24.277344 -46.910156 26.417969 -53 27.238281 -59.664062 C 27.570312 -62.792969 27.320312 -65.835938 26.085938 -68.800781 C 24.769531 -71.597656 22.878906 -73.738281 20.082031 -75.136719 C 16.707031 -76.699219 13.496094 -76.453125 10.371094 -74.476562 C 8.640625 -73.40625 7.242188 -72.007812 6.171875 -70.363281 C 3.457031 -66.414062 1.234375 -62.132812 0.0820312 -57.441406 C -1.894531 -50.035156 -2.058594 -42.628906 -1.152344 -35.058594 C -0.660156 -31.4375 0.492188 -27.980469 0.824219 -24.359375 C 0.824219 -24.113281 0.90625 -23.867188 1.070312 -23.699219 C 1.480469 -23.042969 1.644531 -22.300781 1.808594 -21.5625 C 2.632812 -19.09375 3.457031 -16.542969 4.609375 -14.074219 C 6.089844 -10.78125 8.476562 -8.3125 11.519531 -6.417969 Z M 3.867188 -26.746094 C 2.878906 -26.085938 2.550781 -26.253906 2.304688 -27.320312 C 1.976562 -28.390625 1.726562 -29.542969 1.5625 -30.613281 C 0.660156 -34.8125 0.328125 -39.007812 0.164062 -43.039062 C 0.246094 -47.15625 0.574219 -51.023438 1.316406 -54.808594 C 2.46875 -60.15625 4.773438 -65.011719 7.816406 -69.539062 C 8.476562 -70.445312 9.300781 -71.269531 10.121094 -72.007812 C 14.566406 -75.875 19.667969 -74.476562 22.714844 -70.609375 C 25.019531 -67.8125 25.757812 -64.519531 25.429688 -60.980469 C 24.851562 -54.316406 22.714844 -48.144531 18.761719 -42.628906 C 15.554688 -38.265625 12.34375 -33.988281 8.3125 -30.285156 C 6.914062 -29.050781 5.429688 -27.816406 3.867188 -26.746094 Z M 22.550781 -13.578125 C 19.011719 -14.074219 15.226562 -17.695312 14.730469 -21.230469 C 14.566406 -22.878906 15.058594 -24.441406 16.210938 -25.59375 C 17.527344 -26.992188 19.503906 -27.15625 21.230469 -26.003906 C 22.960938 -24.933594 23.785156 -23.207031 24.195312 -21.316406 C 24.359375 -20.410156 24.359375 -19.339844 24.359375 -18.84375 C 24.277344 -17.035156 24.195312 -15.636719 23.785156 -14.320312 C 23.535156 -13.660156 23.207031 -13.496094 22.550781 -13.578125 Z M 22.550781 -13.578125 "/></g></g></g><g fill="#ff5757" fill-opacity="1"><g transform="translate(249.26765, 211.204503)"><g><path d="M 2.796875 -32.09375 C 3.621094 -32.425781 4.195312 -33.246094 4.195312 -33.988281 C 4.113281 -34.644531 3.785156 -35.140625 3.210938 -35.46875 C 2.878906 -35.632812 2.46875 -35.632812 2.140625 -35.304688 C 1.5625 -34.644531 1.152344 -33.824219 1.398438 -32.835938 C 1.5625 -32.261719 2.304688 -31.847656 2.796875 -32.09375 Z M 10.617188 -10.863281 C 11.933594 -10.863281 13.332031 -10.945312 14.648438 -11.273438 C 17.609375 -11.933594 20.246094 -13.25 22.632812 -14.976562 C 25.839844 -17.199219 28.640625 -19.914062 31.355469 -22.632812 C 32.34375 -23.617188 33.328125 -24.605469 34.234375 -25.59375 C 34.5625 -25.921875 34.644531 -26.417969 34.316406 -26.828125 C 33.988281 -27.15625 33.496094 -27.238281 33.082031 -26.910156 C 32.425781 -26.417969 31.765625 -25.839844 31.191406 -25.265625 C 29.050781 -22.960938 26.828125 -20.820312 24.441406 -18.761719 C 22.136719 -16.789062 19.667969 -15.058594 16.789062 -13.90625 C 14.074219 -12.839844 11.273438 -12.425781 8.3125 -13.003906 C 6.335938 -13.332031 4.9375 -14.320312 3.949219 -15.964844 C 2.386719 -18.515625 1.644531 -21.230469 2.058594 -24.195312 C 2.140625 -24.851562 2.222656 -25.59375 2.222656 -26.253906 C 2.304688 -26.664062 2.058594 -26.992188 1.644531 -27.074219 C 1.316406 -27.238281 0.742188 -26.992188 0.574219 -26.5 C 0.410156 -25.921875 0.164062 -25.347656 0.0820312 -24.769531 C -0.246094 -21.644531 0.246094 -18.761719 1.644531 -15.964844 C 3.292969 -12.753906 5.84375 -10.945312 9.464844 -10.945312 C 9.792969 -10.863281 10.203125 -10.863281 10.617188 -10.863281 Z M 10.617188 -10.863281 "/></g></g></g><g fill="#ff5757" fill-opacity="1"><g transform="translate(281.360274, 211.204503)"><g><path d="M 9.875 -4.773438 C 14.238281 -5.347656 18.269531 -6.914062 22.21875 -8.640625 C 28.886719 -11.769531 34.070312 -16.542969 38.183594 -22.550781 C 38.761719 -23.371094 39.253906 -24.359375 39.75 -25.265625 C 39.914062 -25.59375 40.078125 -26.003906 40.078125 -26.335938 C 40.160156 -26.664062 39.996094 -26.992188 39.75 -27.15625 C 39.417969 -27.320312 39.007812 -27.320312 38.679688 -27.074219 C 38.433594 -26.746094 38.183594 -26.335938 37.9375 -25.921875 C 37.363281 -25.019531 36.867188 -23.949219 36.210938 -23.042969 C 30.53125 -14.894531 22.632812 -9.957031 13.167969 -7.324219 C 12.261719 -7.078125 11.355469 -6.914062 10.453125 -6.832031 C 9.792969 -6.75 9.136719 -6.5 8.476562 -6.914062 C 8.394531 -7.242188 8.558594 -7.488281 8.804688 -7.734375 C 9.792969 -9.050781 10.039062 -10.617188 9.957031 -12.261719 C 9.875 -14.8125 9.136719 -17.199219 7.898438 -19.421875 C 7.160156 -20.820312 6.253906 -22.136719 5.347656 -23.453125 C 4.363281 -25.019531 3.457031 -26.664062 2.960938 -28.554688 C 2.632812 -29.957031 2.878906 -31.109375 3.621094 -32.261719 C 4.855469 -34.152344 6.75 -34.8125 8.96875 -34.5625 C 10.453125 -34.398438 11.851562 -33.824219 13.167969 -33 C 15.058594 -31.929688 15.964844 -30.285156 16.128906 -28.144531 L 16.128906 -27.074219 C 16.210938 -26.664062 16.460938 -26.335938 16.871094 -26.335938 C 17.28125 -26.253906 17.609375 -26.417969 17.777344 -26.828125 C 17.941406 -27.15625 18.023438 -27.570312 18.023438 -27.898438 C 18.105469 -30.121094 17.363281 -32.09375 15.636719 -33.578125 C 13.25 -35.632812 10.453125 -36.621094 7.242188 -36.457031 C 2.960938 -36.210938 -0.164062 -31.601562 1.152344 -27.652344 C 1.808594 -25.757812 2.632812 -24.03125 3.785156 -22.382812 C 4.773438 -20.984375 5.597656 -19.585938 6.417969 -18.105469 C 7.40625 -16.210938 7.898438 -14.15625 8.066406 -12.015625 C 8.230469 -9.464844 6.832031 -7.816406 4.28125 -7.570312 C 3.621094 -7.488281 2.878906 -7.652344 2.222656 -7.652344 L 0.660156 -7.652344 C 0 -7.570312 -0.246094 -6.664062 0.164062 -6.171875 C 0.660156 -5.597656 1.316406 -5.347656 1.976562 -5.265625 C 4.609375 -4.855469 7.242188 -4.445312 9.875 -4.773438 Z M 9.875 -4.773438 "/></g></g></g><g fill="#000000" fill-opacity="1"><g transform="translate(187.499992, 193.124987)"><g/></g></g><g fill="#000000" fill-opacity="1"><g transform="translate(42.047111, 203.624987)"><g><path d="M 16.015625 0.578125 C 14.066406 0.578125 12.332031 0.175781 10.8125 -0.625 C 9.289062 -1.425781 8.132812 -2.546875 7.34375 -3.984375 L 6.953125 0 L 3.3125 0 L 3.3125 -34.53125 L 7.34375 -34.53125 L 7.34375 -19.859375 C 8.101562 -21.015625 9.195312 -22.054688 10.625 -22.984375 C 12.050781 -23.910156 13.863281 -24.375 16.0625 -24.375 C 18.4375 -24.375 20.5 -23.828125 22.25 -22.734375 C 24.007812 -21.648438 25.378906 -20.164062 26.359375 -18.28125 C 27.335938 -16.394531 27.828125 -14.25 27.828125 -11.84375 C 27.828125 -9.445312 27.335938 -7.3125 26.359375 -5.4375 C 25.378906 -3.570312 24.003906 -2.101562 22.234375 -1.03125 C 20.460938 0.0390625 18.390625 0.578125 16.015625 0.578125 Z M 15.59375 -2.921875 C 17.1875 -2.921875 18.59375 -3.296875 19.8125 -4.046875 C 21.03125 -4.804688 21.988281 -5.851562 22.6875 -7.1875 C 23.394531 -8.53125 23.75 -10.097656 23.75 -11.890625 C 23.75 -13.679688 23.394531 -15.25 22.6875 -16.59375 C 21.988281 -17.9375 21.03125 -18.984375 19.8125 -19.734375 C 18.59375 -20.484375 17.1875 -20.859375 15.59375 -20.859375 C 13.988281 -20.859375 12.578125 -20.484375 11.359375 -19.734375 C 10.148438 -18.984375 9.191406 -17.9375 8.484375 -16.59375 C 7.785156 -15.25 7.4375 -13.679688 7.4375 -11.890625 C 7.4375 -10.097656 7.785156 -8.53125 8.484375 -7.1875 C 9.191406 -5.851562 10.148438 -4.804688 11.359375 -4.046875 C 12.578125 -3.296875 13.988281 -2.921875 15.59375 -2.921875 Z M 15.59375 -2.921875 "/></g></g></g><g fill="#000000" fill-opacity="1"><g transform="translate(72.169046, 203.624987)"><g><path d="M 5.90625 10.546875 L 11.796875 -2.296875 L 10.40625 -2.296875 L 0.953125 -23.796875 L 5.328125 -23.796875 L 13.1875 -5.28125 L 21.53125 -23.796875 L 25.71875 -23.796875 L 10.125 10.546875 Z M 5.90625 10.546875 "/></g></g></g></svg>